<svg id="Capa_1" enable-background="new 0 0 497 497" height="512" viewBox="0 0 497 497" width="512" xmlns="http://www.w3.org/2000/svg"><path d="m34.655 243.807c-3.056-7.403-1.271-15.911 4.504-21.461 24.302-23.355 59.351-34.683 94.826-27.238 39.945 8.383 69.825 38.343 80.023 75.137-24.13 29.59-63.534 45.009-103.479 36.625-35.474-7.445-63.012-31.909-75.874-63.063z" fill="#4f4c5e"/><path d="m243.807 34.655c-7.403-3.056-15.911-1.271-21.461 4.504-23.355 24.302-34.683 59.351-27.238 94.826 8.383 39.945 38.343 69.825 75.137 80.023 29.59-24.13 45.009-63.534 36.625-103.479-7.445-35.474-31.909-63.012-63.063-75.874z" fill="#4f4c5e"/><path d="m193.774 98.268c-1.557 11.584-1.205 23.625 1.333 35.717 8.383 39.944 38.343 69.825 75.137 80.023 29.59-24.13 45.009-63.535 36.625-103.479-1.905-9.078-4.931-17.631-8.891-25.556-9.639-1.523-19.463-2.312-29.41-2.312-26.178 0-51.527 5.38-74.794 15.607z" fill="#423e4f"/><path d="m133.985 195.107c-12.092-2.538-24.133-2.89-35.717-1.333-10.227 23.267-15.607 48.616-15.607 74.794 0 9.946.789 19.771 2.312 29.409 7.925 3.961 16.479 6.987 25.556 8.892 39.945 8.383 79.349-7.036 103.479-36.625-10.198-36.794-40.078-66.753-80.023-75.137z" fill="#423e4f"/><path d="m261.824 169.85c-17.063-10.083-29.372-26.916-33.571-46.927-3.486-16.608-.973-33.555 6.732-48.128 2.567-4.856 8.949-6.199 13.251-2.783 12.84 10.196 21.986 24.676 25.489 41.369 4.174 19.889-.258 40.268-11.901 56.469z" fill="#ffa1ac"/><path d="m169.85 261.824c-10.083-17.063-26.916-29.372-46.927-33.571-16.608-3.486-33.555-.973-48.128 6.732-4.856 2.567-6.199 8.949-2.783 13.251 10.196 12.84 24.676 21.986 41.369 25.489 19.889 4.174 40.268-.258 56.469-11.901z" fill="#ffa1ac"/><path d="m355.674 1.781c-5.395.838-8.809 6.239-7.278 11.48 19.865 68.009-21.707 105.23-21.707 105.23l67.633 49.333c16.195-18.746 34.359-17.888 44.781-15.171 3.547.925 6.874-2.067 6.403-5.702-3.163-24.425 17.382-45.296 44.958-37.493 3.72 1.053 7.23-2.298 6.418-6.077-23.592-109.823-110.993-106.294-141.208-101.6z" fill="#4f4c5e"/><path d="m1.781 355.674c.838-5.395 6.239-8.809 11.48-7.278 68.009 19.865 105.23-21.707 105.23-21.707l49.333 67.633c-18.746 16.195-17.888 34.359-15.171 44.781.925 3.547-2.067 6.874-5.702 6.403-24.425-3.163-45.296 17.382-37.493 44.958 1.053 3.72-2.298 7.23-6.077 6.418-109.823-23.592-106.294-110.993-101.6-141.208z" fill="#4f4c5e"/><path d="m406.667 136.684-3.107-3.107c-17.366-17.367-37.495-30.962-59.388-40.404-7.789 16.636-17.483 25.318-17.483 25.318l67.633 49.333c8.483-9.819 17.505-14.254 25.673-15.866-4.061-5.341-8.502-10.448-13.328-15.274z" fill="#423e4f"/><path d="m93.172 344.173c9.442 21.893 23.038 42.021 40.404 59.387l3.106 3.106c4.826 4.826 9.933 9.268 15.275 13.329 1.612-8.168 6.047-17.19 15.866-25.673l-49.333-67.632c.001-.001-8.681 9.694-25.318 17.483z" fill="#423e4f"/><path d="m259.232 82.891c-9.899.486-19.652 1.757-29.197 3.759-3.649 11.547-4.358 24.001-1.782 36.273 4.199 20.011 16.508 36.843 33.571 46.926 11.643-16.201 16.075-36.58 11.901-56.469-2.397-11.42-7.438-21.803-14.493-30.489z" fill="#ff6e80"/><path d="m122.923 228.253c-12.272-2.576-24.726-1.867-36.273 1.782-2.002 9.545-3.273 19.298-3.759 29.197 8.686 7.056 19.069 12.096 30.49 14.493 19.889 4.175 40.268-.257 56.469-11.901-10.084-17.063-26.916-29.373-46.927-33.571z" fill="#ff6e80"/><path d="m154.79 154.79c-62.838 62.838-62.838 164.719 0 227.557l3.106 3.106c45.94 45.94 120.424 45.94 166.364 0l61.193-61.193c45.94-45.94 45.94-120.424 0-166.364l-3.106-3.106c-62.838-62.838-164.719-62.838-227.557 0z" fill="#996acc"/><ellipse cx="221.164" cy="351.691" fill="#ffa1ac" rx="34.056" ry="27.12" transform="matrix(.707 -.707 .707 .707 -183.906 259.394)"/><ellipse cx="351.691" cy="221.164" fill="#ffa1ac" rx="34.056" ry="27.12" transform="matrix(.707 -.707 .707 .707 -53.378 313.462)"/><g fill="#423e4f"><path d="m210.385 283.431c-2.375-3.394-7.053-4.217-10.445-1.842l-20.069 14.052c-3.393 2.376-4.218 7.053-1.842 10.446 1.459 2.083 3.786 3.199 6.15 3.199 1.486 0 2.986-.44 4.295-1.357l20.069-14.052c3.393-2.377 4.218-7.053 1.842-10.446z"/><path d="m283.431 210.385c1.31.917 2.81 1.357 4.295 1.357 2.364 0 4.691-1.116 6.15-3.199l14.052-20.069c2.376-3.393 1.551-8.069-1.842-10.445-3.393-2.375-8.069-1.552-10.445 1.842l-14.052 20.069c-2.376 3.392-1.551 8.069 1.842 10.445z"/><path d="m287.444 240.745c-2.929 2.929-2.929 7.678 0 10.607 1.702 1.702 2.64 3.964 2.64 6.371s-.938 4.67-2.64 6.372-3.965 2.639-6.372 2.639-4.669-.937-6.372-2.639c-2.928-2.929-7.677-2.929-10.606 0s-2.929 7.678 0 10.607c3.513 3.513 3.513 9.229 0 12.743-1.702 1.702-3.965 2.639-6.372 2.639s-4.67-.937-6.372-2.639c-2.929-2.929-7.678-2.929-10.606 0-2.929 2.929-2.929 7.678 0 10.606 4.535 4.535 10.565 7.033 16.979 7.033s12.443-2.498 16.978-7.033c4.517-4.517 6.832-10.401 6.991-16.332 6.181-.156 11.971-2.629 16.359-7.018 4.535-4.535 7.033-10.564 7.033-16.979 0-6.413-2.498-12.443-7.033-16.979-2.929-2.927-7.678-2.927-10.607.002z"/><path d="m212.273 304.125c-2.928-2.929-7.677-2.929-10.606 0s-2.929 7.678 0 10.606l9.691 9.692c1.464 1.464 3.384 2.197 5.303 2.197s3.839-.732 5.303-2.196c2.929-2.929 2.929-7.678 0-10.607z"/><path d="m314.732 201.667c-2.929-2.929-7.678-2.929-10.606 0-2.929 2.929-2.929 7.678 0 10.607l9.691 9.691c1.464 1.465 3.384 2.197 5.303 2.197s3.839-.732 5.303-2.197c2.929-2.929 2.929-7.678 0-10.606z"/></g><path d="m460.088 84.033c-17.704-27.818-41.998-45.416-72.206-52.304-4.041-.921-8.059 1.606-8.98 5.645s1.606 8.059 5.645 8.979c26.221 5.979 47.378 21.366 62.887 45.733 1.43 2.246 3.855 3.474 6.334 3.474 1.377 0 2.771-.379 4.02-1.173 3.495-2.225 4.525-6.86 2.3-10.354z" fill="#5c576e"/><path d="m381.692 84.552c-3.839-1.56-8.212.286-9.773 4.123-1.56 3.837.286 8.213 4.123 9.773 14.66 5.961 27.505 15.453 38.179 28.212 1.483 1.773 3.612 2.688 5.756 2.688 1.697 0 3.404-.573 4.808-1.747 3.177-2.658 3.598-7.388.94-10.565-12.262-14.661-27.077-25.59-44.033-32.484z" fill="#5c576e"/><path d="m92.086 447.434c-24.368-15.508-39.755-36.666-45.733-62.887-.921-4.039-4.944-6.565-8.98-5.645-4.039.921-6.566 4.941-5.645 8.979 6.888 30.208 24.486 54.502 52.305 72.207 1.249.794 2.642 1.173 4.02 1.173 2.479 0 4.905-1.228 6.334-3.474 2.224-3.494 1.194-8.129-2.301-10.353z" fill="#5c576e"/><path d="m126.659 414.221c-12.759-10.673-22.251-23.519-28.212-38.179-1.561-3.837-5.938-5.682-9.772-4.123-3.837 1.56-5.683 5.936-4.123 9.773 6.894 16.955 17.823 31.771 32.483 44.034 1.404 1.174 3.11 1.747 4.808 1.747 2.144 0 4.273-.915 5.756-2.688 2.658-3.176 2.237-7.906-.94-10.564z" fill="#5c576e"/></svg>